<?xml version="1.0" encoding="UTF-8" standalone="no"?>
<!DOCTYPE svg PUBLIC "-//W3C//DTD SVG 1.1//EN"
 "http://www.w3.org/Graphics/SVG/1.1/DTD/svg11.dtd">
<!-- Generated by graphviz version 16.1.0 (0)
 -->
<!-- Title: layers Pages: 1 -->
<svg width="855pt" height="689pt"
 viewBox="0.00 0.00 855.00 689.00" xmlns="http://www.w3.org/2000/svg" xmlns:xlink="http://www.w3.org/1999/xlink">
<g id="graph0" class="graph" transform="scale(1 1) rotate(0) translate(4 684.8)">
<title>layers</title>
<polygon fill="white" stroke="none" points="-4,4 -4,-684.8 851.12,-684.8 851.12,4 -4,4"/>
<!-- Rrow -->
<g id="node1" class="node">
<title>Rrow</title>
<path fill="lightgrey" stroke="none" d="M317.12,-680.8C317.12,-680.8 110.72,-680.8 110.72,-680.8 104.72,-680.8 98.72,-674.8 98.72,-668.8 98.72,-668.8 98.72,-656.8 98.72,-656.8 98.72,-650.8 104.72,-644.8 110.72,-644.8 110.72,-644.8 317.12,-644.8 317.12,-644.8 323.12,-644.8 329.12,-650.8 329.12,-656.8 329.12,-656.8 329.12,-668.8 329.12,-668.8 329.12,-674.8 323.12,-680.8 317.12,-680.8"/>
<text xml:space="preserve" text-anchor="middle" x="213.92" y="-656.98" font-family="Helvetica,sans-Serif" font-size="16.00">Rocq &#160;(MetaRocq)</text>
</g>
<!-- R1 -->
<g id="node3" class="node">
<title>R1</title>
<path fill="#c7e9c0" stroke="#1b7f3b" d="M317.12,-610.3C317.12,-610.3 110.72,-610.3 110.72,-610.3 104.72,-610.3 98.72,-604.3 98.72,-598.3 98.72,-598.3 98.72,-562.9 98.72,-562.9 98.72,-556.9 104.72,-550.9 110.72,-550.9 110.72,-550.9 317.12,-550.9 317.12,-550.9 323.12,-550.9 329.12,-556.9 329.12,-562.9 329.12,-562.9 329.12,-598.3 329.12,-598.3 329.12,-604.3 323.12,-610.3 317.12,-610.3"/>
<text xml:space="preserve" text-anchor="middle" x="213.92" y="-590.75" font-family="Helvetica,sans-Serif" font-size="13.00">kernel theory</text>
<text xml:space="preserve" text-anchor="middle" x="213.92" y="-575.75" font-family="Helvetica,sans-Serif" font-size="13.00">PCUIC decl. spec</text>
<text xml:space="preserve" text-anchor="middle" x="213.92" y="-560.75" font-family="Helvetica,sans-Serif" font-size="13.00">[MR][CCC][JACM][HAB]</text>
</g>
<!-- Rrow&#45;&gt;R1 -->
<!-- Lrow -->
<g id="node2" class="node">
<title>Lrow</title>
<path fill="lightgrey" stroke="none" d="M835.12,-680.8C835.12,-680.8 628.72,-680.8 628.72,-680.8 622.72,-680.8 616.72,-674.8 616.72,-668.8 616.72,-668.8 616.72,-656.8 616.72,-656.8 616.72,-650.8 622.72,-644.8 628.72,-644.8 628.72,-644.8 835.12,-644.8 835.12,-644.8 841.12,-644.8 847.12,-650.8 847.12,-656.8 847.12,-656.8 847.12,-668.8 847.12,-668.8 847.12,-674.8 841.12,-680.8 835.12,-680.8"/>
<text xml:space="preserve" text-anchor="middle" x="731.92" y="-656.98" font-family="Helvetica,sans-Serif" font-size="16.00">Lean &#160;(this project)</text>
</g>
<!-- L1 -->
<g id="node9" class="node">
<title>L1</title>
<path fill="#fdd9b5" stroke="#b35900" d="M835.12,-617.8C835.12,-617.8 628.72,-617.8 628.72,-617.8 622.72,-617.8 616.72,-611.8 616.72,-605.8 616.72,-605.8 616.72,-555.4 616.72,-555.4 616.72,-549.4 622.72,-543.4 628.72,-543.4 628.72,-543.4 835.12,-543.4 835.12,-543.4 841.12,-543.4 847.12,-549.4 847.12,-555.4 847.12,-555.4 847.12,-605.8 847.12,-605.8 847.12,-611.8 841.12,-617.8 835.12,-617.8"/>
<text xml:space="preserve" text-anchor="middle" x="731.92" y="-598.25" font-family="Helvetica,sans-Serif" font-size="13.00">kernel theory</text>
<text xml:space="preserve" text-anchor="middle" x="731.92" y="-583.25" font-family="Helvetica,sans-Serif" font-size="13.00">Lean DTT: typing, def. eq.,</text>
<text xml:space="preserve" text-anchor="middle" x="731.92" y="-568.25" font-family="Helvetica,sans-Serif" font-size="13.00">unique typing</text>
<text xml:space="preserve" text-anchor="middle" x="731.92" y="-553.25" font-family="Helvetica,sans-Serif" font-size="13.00">[CT]</text>
</g>
<!-- Lrow&#45;&gt;L1 -->
<!-- R2 -->
<g id="node4" class="node">
<title>R2</title>
<path fill="#c7e9c0" stroke="#1b7f3b" d="M317.12,-516.4C317.12,-516.4 110.72,-516.4 110.72,-516.4 104.72,-516.4 98.72,-510.4 98.72,-504.4 98.72,-504.4 98.72,-469 98.72,-469 98.72,-463 104.72,-457 110.72,-457 110.72,-457 317.12,-457 317.12,-457 323.12,-457 329.12,-463 329.12,-469 329.12,-469 329.12,-504.4 329.12,-504.4 329.12,-510.4 323.12,-516.4 317.12,-516.4"/>
<text xml:space="preserve" text-anchor="middle" x="213.92" y="-496.85" font-family="Helvetica,sans-Serif" font-size="13.00">kernel verification</text>
<text xml:space="preserve" text-anchor="middle" x="213.92" y="-481.85" font-family="Helvetica,sans-Serif" font-size="13.00">SafeChecker, sound+complete</text>
<text xml:space="preserve" text-anchor="middle" x="213.92" y="-466.85" font-family="Helvetica,sans-Serif" font-size="13.00">[CCC][JACM][HAB]</text>
</g>
<!-- R1&#45;&gt;R2 -->
<!-- R3 -->
<g id="node5" class="node">
<title>R3</title>
<path fill="#c7e9c0" stroke="#1b7f3b" d="M344.72,-422.5C344.72,-422.5 83.12,-422.5 83.12,-422.5 77.12,-422.5 71.12,-416.5 71.12,-410.5 71.12,-410.5 71.12,-375.1 71.12,-375.1 71.12,-369.1 77.12,-363.1 83.12,-363.1 83.12,-363.1 344.72,-363.1 344.72,-363.1 350.72,-363.1 356.72,-369.1 356.72,-375.1 356.72,-375.1 356.72,-410.5 356.72,-410.5 356.72,-416.5 350.72,-422.5 344.72,-422.5"/>
<text xml:space="preserve" text-anchor="middle" x="213.92" y="-402.95" font-family="Helvetica,sans-Serif" font-size="13.00">erasure theory</text>
<text xml:space="preserve" text-anchor="middle" x="213.92" y="-387.95" font-family="Helvetica,sans-Serif" font-size="13.00">lambda&#45;box, isErasable, erases, EWcbvEval</text>
<text xml:space="preserve" text-anchor="middle" x="213.92" y="-372.95" font-family="Helvetica,sans-Serif" font-size="13.00">[L][CCC][JACM][HAB]</text>
</g>
<!-- R2&#45;&gt;R3 -->
<!-- R4 -->
<g id="node6" class="node">
<title>R4</title>
<path fill="#c7e9c0" stroke="#1b7f3b" d="M332.72,-328.6C332.72,-328.6 95.12,-328.6 95.12,-328.6 89.12,-328.6 83.12,-322.6 83.12,-316.6 83.12,-316.6 83.12,-281.2 83.12,-281.2 83.12,-275.2 89.12,-269.2 95.12,-269.2 95.12,-269.2 332.72,-269.2 332.72,-269.2 338.72,-269.2 344.72,-275.2 344.72,-281.2 344.72,-281.2 344.72,-316.6 344.72,-316.6 344.72,-322.6 338.72,-328.6 332.72,-328.6"/>
<text xml:space="preserve" text-anchor="middle" x="213.92" y="-309.05" font-family="Helvetica,sans-Serif" font-size="13.00">erasure verification</text>
<text xml:space="preserve" text-anchor="middle" x="213.92" y="-294.05" font-family="Helvetica,sans-Serif" font-size="13.00">erases_correct, erase_correct_firstorder</text>
<text xml:space="preserve" text-anchor="middle" x="213.92" y="-279.05" font-family="Helvetica,sans-Serif" font-size="13.00">[L][CCC][JACM][HAB]</text>
</g>
<!-- R3&#45;&gt;R4 -->
<!-- R5 -->
<g id="node7" class="node">
<title>R5</title>
<path fill="#c7e9c0" stroke="#1b7f3b" d="M317.12,-242.2C317.12,-242.2 110.72,-242.2 110.72,-242.2 104.72,-242.2 98.72,-236.2 98.72,-230.2 98.72,-230.2 98.72,-179.8 98.72,-179.8 98.72,-173.8 104.72,-167.8 110.72,-167.8 110.72,-167.8 317.12,-167.8 317.12,-167.8 323.12,-167.8 329.12,-173.8 329.12,-179.8 329.12,-179.8 329.12,-230.2 329.12,-230.2 329.12,-236.2 323.12,-242.2 317.12,-242.2"/>
<text xml:space="preserve" text-anchor="middle" x="213.92" y="-222.65" font-family="Helvetica,sans-Serif" font-size="13.00">erasure implementation</text>
<text xml:space="preserve" text-anchor="middle" x="213.92" y="-207.65" font-family="Helvetica,sans-Serif" font-size="13.00">ErasureFunction.v, plugin,</text>
<text xml:space="preserve" text-anchor="middle" x="213.92" y="-192.65" font-family="Helvetica,sans-Serif" font-size="13.00">Peregrine Extract</text>
<text xml:space="preserve" text-anchor="middle" x="213.92" y="-177.65" font-family="Helvetica,sans-Serif" font-size="13.00">[CCC][JACM][HAB]</text>
</g>
<!-- R4&#45;&gt;R5 -->
<!-- R6 -->
<g id="node8" class="node">
<title>R6</title>
<path fill="#c7e9c0" stroke="#1b7f3b" d="M329.35,-140.8C329.35,-140.8 98.5,-140.8 98.5,-140.8 92.5,-140.8 86.5,-134.8 86.5,-128.8 86.5,-128.8 86.5,-78.4 86.5,-78.4 86.5,-72.4 92.5,-66.4 98.5,-66.4 98.5,-66.4 329.35,-66.4 329.35,-66.4 335.35,-66.4 341.35,-72.4 341.35,-78.4 341.35,-78.4 341.35,-128.8 341.35,-128.8 341.35,-134.8 335.35,-140.8 329.35,-140.8"/>
<text xml:space="preserve" text-anchor="middle" x="213.92" y="-121.25" font-family="Helvetica,sans-Serif" font-size="13.00">pipeline and backends</text>
<text xml:space="preserve" text-anchor="middle" x="213.92" y="-106.25" font-family="Helvetica,sans-Serif" font-size="13.00">13 Transform.t phases;</text>
<text xml:space="preserve" text-anchor="middle" x="213.92" y="-91.25" font-family="Helvetica,sans-Serif" font-size="13.00">Malfunction/C/Wasm/CakeML/Rust/Elm</text>
<text xml:space="preserve" text-anchor="middle" x="213.92" y="-76.25" font-family="Helvetica,sans-Serif" font-size="13.00">[JACM][HAB][L][R]</text>
</g>
<!-- R5&#45;&gt;R6 -->
<!-- legend -->
<g id="node15" class="node">
<title>legend</title>
<path fill="lightgrey" stroke="none" d="M415.85,-39.4C415.85,-39.4 12,-39.4 12,-39.4 6,-39.4 0,-33.4 0,-27.4 0,-27.4 0,-12 0,-12 0,-6 6,0 12,0 12,0 415.85,0 415.85,0 421.85,0 427.85,-6 427.85,-12 427.85,-12 427.85,-27.4 427.85,-27.4 427.85,-33.4 421.85,-39.4 415.85,-39.4"/>
<polygon fill="#c7e9c0" stroke="none" points="10.8,-7.2 10.8,-32.2 64.3,-32.2 64.3,-7.2 10.8,-7.2"/>
<polygon fill="none" stroke="black" points="10.8,-7.2 10.8,-32.2 64.3,-32.2 64.3,-7.2 10.8,-7.2"/>
<text xml:space="preserve" text-anchor="start" x="15.8" y="-15.2" font-family="Helvetica,sans-Serif" font-size="13.00">verified</text>
<polygon fill="#fdd9b5" stroke="none" points="64.3,-7.2 64.3,-32.2 128.3,-32.2 128.3,-7.2 64.3,-7.2"/>
<polygon fill="none" stroke="black" points="64.3,-7.2 64.3,-32.2 128.3,-32.2 128.3,-7.2 64.3,-7.2"/>
<text xml:space="preserve" text-anchor="start" x="69.3" y="-15.2" font-family="Helvetica,sans-Serif" font-size="13.00">assumed</text>
<polygon fill="#bdd7ee" stroke="none" points="128.3,-7.2 128.3,-32.2 203.55,-32.2 203.55,-7.2 128.3,-7.2"/>
<polygon fill="none" stroke="black" points="128.3,-7.2 128.3,-32.2 203.55,-32.2 203.55,-7.2 128.3,-7.2"/>
<text xml:space="preserve" text-anchor="start" x="133.3" y="-15.2" font-family="Helvetica,sans-Serif" font-size="13.00">this project</text>
<polygon fill="#e6e6e6" stroke="none" points="203.55,-7.2 203.55,-32.2 254.8,-32.2 254.8,-7.2 203.55,-7.2"/>
<polygon fill="none" stroke="black" points="203.55,-7.2 203.55,-32.2 254.8,-32.2 254.8,-7.2 203.55,-7.2"/>
<text xml:space="preserve" text-anchor="start" x="208.55" y="-15.2" font-family="Helvetica,sans-Serif" font-size="13.00">shared</text>
<polygon fill="#f7c6c7" stroke="none" points="254.8,-7.2 254.8,-32.2 417.05,-32.2 417.05,-7.2 254.8,-7.2"/>
<polygon fill="none" stroke="black" points="254.8,-7.2 254.8,-32.2 417.05,-32.2 417.05,-7.2 254.8,-7.2"/>
<text xml:space="preserve" text-anchor="start" x="259.8" y="-15.2" font-family="Helvetica,sans-Serif" font-size="13.00">unverified implementation</text>
</g>
<!-- R6&#45;&gt;legend -->
<!-- L1&#45;&gt;R1 -->
<g id="edge13" class="edge">
<title>L1&#45;&gt;R1</title>
<path fill="none" stroke="#b35900" d="M616.23,-580.6C534.53,-580.6 425.08,-580.6 340.96,-580.6"/>
<polygon fill="#b35900" stroke="#b35900" points="341.04,-577.1 331.04,-580.6 341.04,-584.1 341.04,-577.1"/>
<text xml:space="preserve" text-anchor="middle" x="472.92" y="-586.1" font-family="Helvetica,sans-Serif" font-size="10.00" fill="#b35900">assumes</text>
</g>
<!-- L2 -->
<g id="node10" class="node">
<title>L2</title>
<path fill="#fdd9b5" stroke="#b35900" d="M835.12,-516.4C835.12,-516.4 628.72,-516.4 628.72,-516.4 622.72,-516.4 616.72,-510.4 616.72,-504.4 616.72,-504.4 616.72,-469 616.72,-469 616.72,-463 622.72,-457 628.72,-457 628.72,-457 835.12,-457 835.12,-457 841.12,-457 847.12,-463 847.12,-469 847.12,-469 847.12,-504.4 847.12,-504.4 847.12,-510.4 841.12,-516.4 835.12,-516.4"/>
<text xml:space="preserve" text-anchor="middle" x="731.92" y="-496.85" font-family="Helvetica,sans-Serif" font-size="13.00">kernel verification</text>
<text xml:space="preserve" text-anchor="middle" x="731.92" y="-481.85" font-family="Helvetica,sans-Serif" font-size="13.00">lean4lean checker (undigested)</text>
<text xml:space="preserve" text-anchor="middle" x="731.92" y="-466.85" font-family="Helvetica,sans-Serif" font-size="13.00">[CT] bounds it negatively</text>
</g>
<!-- L1&#45;&gt;L2 -->
<!-- L2&#45;&gt;R2 -->
<g id="edge14" class="edge">
<title>L2&#45;&gt;R2</title>
<path fill="none" stroke="#b35900" d="M616.23,-486.7C534.53,-486.7 425.08,-486.7 340.96,-486.7"/>
<polygon fill="#b35900" stroke="#b35900" points="341.04,-483.2 331.04,-486.7 341.04,-490.2 341.04,-483.2"/>
<text xml:space="preserve" text-anchor="middle" x="472.92" y="-492.2" font-family="Helvetica,sans-Serif" font-size="10.00" fill="#b35900">assumes</text>
</g>
<!-- L3 -->
<g id="node11" class="node">
<title>L3</title>
<path fill="#bdd7ee" stroke="#0b4f8a" d="M835.12,-430C835.12,-430 628.72,-430 628.72,-430 622.72,-430 616.72,-424 616.72,-418 616.72,-418 616.72,-367.6 616.72,-367.6 616.72,-361.6 622.72,-355.6 628.72,-355.6 628.72,-355.6 835.12,-355.6 835.12,-355.6 841.12,-355.6 847.12,-361.6 847.12,-367.6 847.12,-367.6 847.12,-418 847.12,-418 847.12,-424 841.12,-430 835.12,-430"/>
<text xml:space="preserve" text-anchor="middle" x="731.92" y="-410.45" font-family="Helvetica,sans-Serif" font-size="13.00">erasure theory</text>
<text xml:space="preserve" text-anchor="middle" x="731.92" y="-395.45" font-family="Helvetica,sans-Serif" font-size="13.00">Lean&#45;side Erases relation,</text>
<text xml:space="preserve" text-anchor="middle" x="731.92" y="-380.45" font-family="Helvetica,sans-Serif" font-size="13.00">visitExpr bridge</text>
<text xml:space="preserve" text-anchor="middle" x="731.92" y="-365.45" font-family="Helvetica,sans-Serif" font-size="13.00">[JACM]/[HAB] as model</text>
</g>
<!-- L2&#45;&gt;L3 -->
<!-- L3&#45;&gt;R3 -->
<g id="edge15" class="edge">
<title>L3&#45;&gt;R3</title>
<path fill="none" stroke="#0b4f8a" d="M616.63,-392.8C543.48,-392.8 447.97,-392.8 368.32,-392.8"/>
<polygon fill="#0b4f8a" stroke="#0b4f8a" points="368.7,-389.3 358.7,-392.8 368.7,-396.3 368.7,-389.3"/>
<text xml:space="preserve" text-anchor="middle" x="486.72" y="-398.3" font-family="Helvetica,sans-Serif" font-size="10.00" fill="#0b4f8a">ports</text>
</g>
<!-- L4 -->
<g id="node12" class="node">
<title>L4</title>
<path fill="#bdd7ee" stroke="#0b4f8a" d="M835.12,-328.6C835.12,-328.6 628.72,-328.6 628.72,-328.6 622.72,-328.6 616.72,-322.6 616.72,-316.6 616.72,-316.6 616.72,-281.2 616.72,-281.2 616.72,-275.2 622.72,-269.2 628.72,-269.2 628.72,-269.2 835.12,-269.2 835.12,-269.2 841.12,-269.2 847.12,-275.2 847.12,-281.2 847.12,-281.2 847.12,-316.6 847.12,-316.6 847.12,-322.6 841.12,-328.6 835.12,-328.6"/>
<text xml:space="preserve" text-anchor="middle" x="731.92" y="-309.05" font-family="Helvetica,sans-Serif" font-size="13.00">erasure verification</text>
<text xml:space="preserve" text-anchor="middle" x="731.92" y="-294.05" font-family="Helvetica,sans-Serif" font-size="13.00">THIS PROJECT, dev/verify</text>
<text xml:space="preserve" text-anchor="middle" x="731.92" y="-279.05" font-family="Helvetica,sans-Serif" font-size="13.00">no source</text>
</g>
<!-- L3&#45;&gt;L4 -->
<!-- L4&#45;&gt;R4 -->
<g id="edge16" class="edge">
<title>L4&#45;&gt;R4</title>
<path fill="none" stroke="#0b4f8a" d="M616.41,-298.9C539.6,-298.9 438.19,-298.9 356.38,-298.9"/>
<polygon fill="#0b4f8a" stroke="#0b4f8a" points="356.49,-295.4 346.49,-298.9 356.49,-302.4 356.49,-295.4"/>
<text xml:space="preserve" text-anchor="middle" x="480.72" y="-304.4" font-family="Helvetica,sans-Serif" font-size="10.00" fill="#0b4f8a">ports</text>
</g>
<!-- L5 -->
<g id="node13" class="node">
<title>L5</title>
<path fill="#f7c6c7" stroke="#b00020" d="M835.12,-234.7C835.12,-234.7 628.72,-234.7 628.72,-234.7 622.72,-234.7 616.72,-228.7 616.72,-222.7 616.72,-222.7 616.72,-187.3 616.72,-187.3 616.72,-181.3 622.72,-175.3 628.72,-175.3 628.72,-175.3 835.12,-175.3 835.12,-175.3 841.12,-175.3 847.12,-181.3 847.12,-187.3 847.12,-187.3 847.12,-222.7 847.12,-222.7 847.12,-228.7 841.12,-234.7 835.12,-234.7"/>
<text xml:space="preserve" text-anchor="middle" x="731.92" y="-215.15" font-family="Helvetica,sans-Serif" font-size="13.00">erasure implementation</text>
<text xml:space="preserve" text-anchor="middle" x="731.92" y="-200.15" font-family="Helvetica,sans-Serif" font-size="13.00">#erase in LeanToLambdaBox</text>
<text xml:space="preserve" text-anchor="middle" x="731.92" y="-185.15" font-family="Helvetica,sans-Serif" font-size="13.00">[R]</text>
</g>
<!-- L4&#45;&gt;L5 -->
<!-- L6 -->
<g id="node14" class="node">
<title>L6</title>
<path fill="#e6e6e6" stroke="#666666" d="M835.12,-133.3C835.12,-133.3 628.72,-133.3 628.72,-133.3 622.72,-133.3 616.72,-127.3 616.72,-121.3 616.72,-121.3 616.72,-85.9 616.72,-85.9 616.72,-79.9 622.72,-73.9 628.72,-73.9 628.72,-73.9 835.12,-73.9 835.12,-73.9 841.12,-73.9 847.12,-79.9 847.12,-85.9 847.12,-85.9 847.12,-121.3 847.12,-121.3 847.12,-127.3 841.12,-133.3 835.12,-133.3"/>
<text xml:space="preserve" text-anchor="middle" x="731.92" y="-113.75" font-family="Helvetica,sans-Serif" font-size="13.00">pipeline and backends</text>
<text xml:space="preserve" text-anchor="middle" x="731.92" y="-98.75" font-family="Helvetica,sans-Serif" font-size="13.00">shared with the Rocq row</text>
<text xml:space="preserve" text-anchor="middle" x="731.92" y="-83.75" font-family="Helvetica,sans-Serif" font-size="13.00">[R] as a consumer</text>
</g>
<!-- L5&#45;&gt;L6 -->
<!-- L6&#45;&gt;R6 -->
<g id="edge17" class="edge">
<title>L6&#45;&gt;R6</title>
<path fill="none" stroke="#666666" d="M616.25,-103.6C538.43,-103.6 435.42,-103.6 353.11,-103.6"/>
<polygon fill="#666666" stroke="#666666" points="353.15,-100.1 343.15,-103.6 353.15,-107.1 353.15,-100.1"/>
<text xml:space="preserve" text-anchor="middle" x="479.04" y="-109.1" font-family="Helvetica,sans-Serif" font-size="10.00" fill="#666666">shares</text>
</g>
</g>
</svg>
